<svg width="45" height="45" viewBox="0 0 45 45" fill="none" xmlns="http://www.w3.org/2000/svg">
<path d="M22.5 3.75C17.5468 3.81317 12.8143 5.80889 9.3116 9.3116C5.80889 12.8143 3.81317 17.5468 3.75 22.5C3.77315 25.3855 4.46198 28.2267 5.76283 30.8024C7.06369 33.3781 8.94148 35.6188 11.25 37.35V37.5H11.4375C14.6122 39.9328 18.5003 41.2512 22.5 41.2512C26.4997 41.2512 30.3878 39.9328 33.5625 37.5H33.75V37.35C36.0585 35.6188 37.9363 33.3781 39.2372 30.8024C40.538 28.2267 41.2269 25.3855 41.25 22.5C41.1868 17.5468 39.1911 12.8143 35.6884 9.3116C32.1857 5.80889 27.4532 3.81317 22.5 3.75ZM15.1313 35.4937C15.405 34.2402 16.099 33.1179 17.0983 32.3131C18.0975 31.5082 19.3419 31.0691 20.625 31.0687H24.375C25.6581 31.0691 26.9025 31.5082 27.9017 32.3131C28.901 33.1179 29.595 34.2402 29.8688 35.4937C27.6354 36.8078 25.0913 37.5007 22.5 37.5007C19.9087 37.5007 17.3646 36.8078 15.1313 35.4937ZM33.0188 33.075C32.3056 31.3705 31.1046 29.9148 29.5667 28.8907C28.0289 27.8665 26.2227 27.3197 24.375 27.3187H20.625C18.7773 27.3197 16.9711 27.8665 15.4333 28.8907C13.8954 29.9148 12.6945 31.3705 11.9813 33.075C10.5762 31.6931 9.45731 30.0479 8.6884 28.2334C7.91949 26.4189 7.51566 24.4706 7.5 22.5C7.54863 18.5369 9.1446 14.7497 11.9472 11.9472C14.7497 9.1446 18.5369 7.54863 22.5 7.5C26.4631 7.54863 30.2503 9.1446 33.0528 11.9472C35.8554 14.7497 37.4514 18.5369 37.5 22.5C37.4843 24.4706 37.0805 26.4189 36.3116 28.2334C35.5427 30.0479 34.4238 31.6931 33.0188 33.075Z" fill="black"/>
<path d="M22.5 11.25C21.5087 11.2269 20.5231 11.4051 19.6028 11.7739C18.6824 12.1426 17.8464 12.6942 17.1453 13.3953C16.4442 14.0964 15.8926 14.9324 15.5238 15.8528C15.1551 16.7732 14.9769 17.7588 15 18.75C14.9769 19.7412 15.1551 20.7268 15.5238 21.6472C15.8926 22.5676 16.4442 23.4036 17.1453 24.1047C17.8464 24.8058 18.6824 25.3574 19.6028 25.7261C20.5231 26.0949 21.5087 26.2731 22.5 26.25C23.4912 26.2731 24.4768 26.0949 25.3972 25.7261C26.3176 25.3574 27.1536 24.8058 27.8547 24.1047C28.5558 23.4036 29.1074 22.5676 29.4761 21.6472C29.8449 20.7268 30.0231 19.7412 30 18.75C30.0231 17.7588 29.8449 16.7732 29.4761 15.8528C29.1074 14.9324 28.5558 14.0964 27.8547 13.3953C27.1536 12.6942 26.3176 12.1426 25.3972 11.7739C24.4768 11.4051 23.4912 11.2269 22.5 11.25ZM22.5 22.5C22.0011 22.5241 21.5028 22.4436 21.0369 22.2637C20.571 22.0838 20.1479 21.8084 19.7947 21.4553C19.4416 21.1021 19.1662 20.679 18.9863 20.2131C18.8063 19.7472 18.7259 19.2488 18.75 18.75C18.7259 18.2512 18.8063 17.7528 18.9863 17.2869C19.1662 16.821 19.4416 16.3979 19.7947 16.0447C20.1479 15.6916 20.571 15.4162 21.0369 15.2363C21.5028 15.0564 22.0011 14.9759 22.5 15C22.9988 14.9759 23.4972 15.0564 23.9631 15.2363C24.429 15.4162 24.8521 15.6916 25.2052 16.0447C25.5584 16.3979 25.8338 16.821 26.0137 17.2869C26.1936 17.7528 26.2741 18.2512 26.25 18.75C26.2741 19.2488 26.1936 19.7472 26.0137 20.2131C25.8338 20.679 25.5584 21.1021 25.2052 21.4553C24.8521 21.8084 24.429 22.0838 23.9631 22.2637C23.4972 22.4436 22.9988 22.5241 22.5 22.5Z" fill="black"/>
</svg>
